                                                                        S      1
,,12HRaumklimaApp,12HRaumklimaApp,7Hunknown,7Hunknown,32,38,7,99,15,,1.,G      1
2,2HMM,1,0.08,15H20210425.183214,0.01,10000.,7Hunknown,7Hunknown,11,0,  G      2
15H20210425.160536;                                                     G      3
     186       1                                                00000000D      1
     186            -119       1       0                               0D      2
     514       2                                                00010000D      3
     514                       1       1                               0D      4
     510       3                                                00010000D      5
     510            -119       1       1                               0D      6
     510       4                                                00010000D      7
     510            -119       1       1                               0D      8
     510       5                                                00010000D      9
     510            -119       1       1                               0D     10
     510       6                                                00010000D     11
     510            -119       1       1                               0D     12
     510       7                                                00010000D     13
     510            -119       1       1                               0D     14
     510       8                                                00010000D     15
     510            -119       1       1                               0D     16
     510       9                                                00010000D     17
     510            -119       1       1                               0D     18
     510      10                                                00010000D     19
     510            -119       1       1                               0D     20
     510      11                                                00010000D     21
     510            -119       1       1                               0D     22
     510      12                                                00010000D     23
     510            -119       1       1                               0D     24
     508      13                                                00010000D     25
     508                       1       1                               0D     26
     508      14                                                00010000D     27
     508                       1       1                               0D     28
     508      15                                                00010000D     29
     508                       2       1                               0D     30
     508      17                                                00010000D     31
     508                       1       1                               0D     32
     508      18                                                00010000D     33
     508                       1       1                               0D     34
     508      19                                                00010000D     35
     508                       1       1                               0D     36
     508      20                                                00010000D     37
     508                       1       1                               0D     38
     508      21                                                00010000D     39
     508                       1       1                               0D     40
     508      22                                                00010000D     41
     508                       1       1                               0D     42
     508      23                                                00010000D     43
     508                       2       1                               0D     44
     126      25                                                00010000D     45
     126       0               4       0                               0D     46
     126      29                                                00010000D     47
     126       0               2       0                               0D     48
     126      31                                                00010000D     49
     126       0               4       0                               0D     50
     126      35                                                00010000D     51
     126       0               2       0                               0D     52
     126      37                                                00010000D     53
     126       0               2       0                               0D     54
     126      39                                                00010000D     55
     126       0               2       0                               0D     56
     126      41                                                00010000D     57
     126       0               2       0                               0D     58
     126      43                                                00010000D     59
     126       0               2       0                               0D     60
     126      45                                                00010000D     61
     126       0               4       0                               0D     62
     126      49                                                00010000D     63
     126       0               2       0                               0D     64
     126      51                                                00010000D     65
     126       0               4       0                               0D     66
     126      55                                                00010000D     67
     126       0               2       0                               0D     68
     126      57                                                00010000D     69
     126       0               4       0                               0D     70
     126      61                                                00010000D     71
     126       0               5       0                               0D     72
     126      66                                                00010000D     73
     126       0               2       0                               0D     74
     126      68                                                00010000D     75
     126       0               2       0                               0D     76
     126      70                                                00010000D     77
     126       0               2       0                               0D     78
     126      72                                                00010000D     79
     126       0               2       0                               0D     80
     126      74                                                00010000D     81
     126       0               4       0                               0D     82
     126      78                                                00010000D     83
     126       0               2       0                               0D     84
     126      80                                                00010000D     85
     126       0               4       0                               0D     86
     126      84                                                00010000D     87
     126       0               2       0                               0D     88
     126      86                                                00010000D     89
     126       0               2       0                               0D     90
     126      88                                                00010000D     91
     126       0               2       0                               0D     92
     128      90                                                00010000D     93
     128       0    -119       7       0                               0D     94
     128      97                                                00010000D     95
     128       0    -119       3       0                               0D     96
     128     100                                                00010000D     97
     128       0    -119       4       0                               0D     98
     128     104                                                00010000D     99
     128       0    -119       6       0                               0D    100
     128     110                                                00010000D    101
     128       0    -119       3       0                               0D    102
     128     113                                                00010000D    103
     128       0    -119       7       0                               0D    104
     128     120                                                00010000D    105
     128       0    -119       7       0                               0D    106
     128     127                                                00010000D    107
     128       0    -119       4       0                               0D    108
     128     131                                                00010000D    109
     128       0    -119       3       0                               0D    110
     128     134                                                00010000D    111
     128       0    -119       4       0                               0D    112
     502     138                                                00010000D    113
     502                       4       1                               0D    114
     504     142                                                00010001D    115
     504                       7       1                               0D    116
     406     149                                                00000000D    117
     406                       1      15                               0D    118
     314     150                                                00000200D    119
     314                       2       0                               0D    120
     314     152                                                00000200D    121
     314                       2       0                               0D    122
186,3,1,0,0,1,117;                                                     1P      1
514,10,5,1,7,1,9,1,11,1,13,1,15,1,17,1,19,1,21,1,23,1;                 3P      2
510,93,1,1,25;                                                         5P      3
510,95,1,1,27;                                                         7P      4
510,97,1,1,29;                                                         9P      5
510,99,1,1,31;                                                        11P      6
510,101,1,1,33;                                                       13P      7
510,103,1,1,35;                                                       15P      8
510,105,1,1,37;                                                       17P      9
510,107,1,1,39;                                                       19P     10
510,109,1,1,41;                                                       21P     11
510,111,1,1,43;                                                       23P     12
508,4,0,115,1,1,0,0,115,2,1,0,0,115,3,1,0,0,115,4,1,0;                25P     13
508,4,0,115,4,0,0,0,115,5,1,0,0,115,6,0,0,0,115,7,0,0;                27P     14
508,8,0,115,3,0,0,0,115,8,0,0,0,115,9,0,0,0,115,10,0,0,0,115,11,      29P     15
0,0,0,115,12,0,0,0,115,13,0,0,0,115,5,0,0;                            29P     16
508,4,0,115,14,1,0,0,115,15,1,0,0,115,9,1,0,0,115,16,1,0;             31P     17
508,4,0,115,15,0,0,0,115,17,0,0,0,115,18,0,0,0,115,10,1,0;            33P     18
508,4,0,115,19,1,0,0,115,20,1,0,0,115,11,1,0,0,115,18,1,0;            35P     19
508,4,0,115,21,1,0,0,115,6,1,0,0,115,13,1,0,0,115,22,1,0;             37P     20
508,4,0,115,2,0,0,0,115,23,0,0,0,115,16,0,0,0,115,8,1,0;              39P     21
508,4,0,115,20,0,0,0,115,24,0,0,0,115,22,0,0,0,115,12,1,0;            41P     22
508,8,0,115,1,0,0,0,115,7,1,0,0,115,21,0,0,0,115,24,1,0,0,115,        43P     23
19,0,0,0,115,17,1,0,0,115,14,0,0,0,115,23,1,0;                        43P     24
126,2,2,0,0,0,0,-0.785398163397448,-0.785398163397448,                45P     25
-0.785398163397448,0.785398163397448,0.785398163397448,               45P     26
0.785398163397448,1.,0.707106781186548,1.,0.,67.8,8.1,0.,77.8,        45P     27
8.1,10.,77.8,8.1,-0.785398163397448,0.785398163397448,0.,0.,0.;       45P     28
126,1,1,0,0,1,0,-0.81,-0.81,0.,0.,1.,1.,10.,77.8,8.1,10.,77.8,        47P     29
0.,-0.81,0.,0.,0.,0.;                                                 47P     30
126,2,2,0,0,0,0,-0.785398163397448,-0.785398163397448,                49P     31
-0.785398163397448,0.785398163397448,0.785398163397448,               49P     32
0.785398163397448,1.,0.707106781186548,1.,10.,77.8,0.,0.,77.8,        49P     33
0.,0.,67.8,0.,-0.785398163397448,0.785398163397448,0.,0.,0.;          49P     34
126,1,1,0,0,1,0,0.,0.,0.81,0.81,1.,1.,0.,67.8,0.,0.,67.8,8.1,0.,      51P     35
0.81,0.,0.,0.;                                                        51P     36
126,1,1,0,0,1,0,1.,1.,6.78,6.78,1.,1.,0.,67.8,0.,0.,10.,0.,1.,        53P     37
6.78,0.,0.,0.;                                                        53P     38
126,1,1,0,0,1,0,-0.81,-0.81,0.,0.,1.,1.,0.,10.,8.1,0.,10.,0.,         55P     39
-0.81,0.,0.,0.,0.;                                                    55P     40
126,1,1,0,0,1,0,1.,1.,6.78,6.78,1.,1.,0.,67.8,8.1,0.,10.,8.1,1.,      57P     41
6.78,0.,0.,0.;                                                        57P     42
126,1,1,0,0,1,0,1.,1.,14.8,14.8,1.,1.,148.,77.8,0.,10.,77.8,0.,       59P     43
1.,14.8,0.,0.,0.;                                                     59P     44
126,2,2,0,0,0,0,-0.785398163397448,-0.785398163397448,                61P     45
-0.785398163397448,0.785398163397448,0.785398163397448,               61P     46
0.785398163397448,1.,0.70710678118655,1.,158.,67.8,0.,158.,77.8,      61P     47
0.,148.,77.8,0.,-0.785398163397448,0.785398163397448,0.,0.,0.;        61P     48
126,1,1,0,0,1,0,1.,1.,6.78,6.78,1.,1.,158.,10.,0.,158.,67.8,0.,       63P     49
1.,6.78,0.,0.,0.;                                                     63P     50
126,2,2,0,0,0,0,-0.785398163397448,-0.785398163397448,                65P     51
-0.785398163397448,0.785398163397448,0.785398163397448,               65P     52
0.785398163397448,1.,0.707106781186548,1.,148.,0.,0.,158.,0.,0.,      65P     53
158.,10.,0.,-0.785398163397448,0.785398163397448,0.,0.,0.;            65P     54
126,1,1,0,0,1,0,1.,1.,14.8,14.8,1.,1.,10.,0.,0.,148.,0.,0.,1.,        67P     55
14.8,0.,0.,0.;                                                        67P     56
126,2,2,0,0,0,0,-0.785398163397448,-0.785398163397448,                69P     57
-0.785398163397448,0.785398163397448,0.785398163397448,               69P     58
0.785398163397448,1.,0.707106781186547,1.,0.,10.,0.,0.,0.,0.,         69P     59
10.,0.,0.,-0.785398163397448,0.785398163397448,0.,0.,0.;              69P     60
126,2,2,0,0,0,0,-0.785398163397448,-0.785398163397448,                71P     61
-0.785398163397448,0.785398163397448,0.785398163397448,               71P     62
0.785398163397448,1.,0.70710678118655,1.,148.,77.8,8.1,158.,          71P     63
77.8,8.1,158.,67.8,8.1,-0.785398163397448,0.785398163397448,0.,       71P     64
0.,0.;                                                                71P     65
126,1,1,0,0,1,0,-0.81,-0.81,0.,0.,1.,1.,158.,67.8,8.1,158.,67.8,      73P     66
0.,-0.81,0.,0.,0.,0.;                                                 73P     67
126,1,1,0,0,1,0,0.,0.,0.81,0.81,1.,1.,148.,77.8,0.,148.,77.8,         75P     68
8.1,0.,0.81,0.,0.,0.;                                                 75P     69
126,1,1,0,0,1,0,1.,1.,6.78,6.78,1.,1.,158.,10.,8.1,158.,67.8,         77P     70
8.1,1.,6.78,0.,0.,0.;                                                 77P     71
126,1,1,0,0,1,0,0.,0.,0.81,0.81,1.,1.,158.,10.,0.,158.,10.,8.1,       79P     72
0.,0.81,0.,0.,0.;                                                     79P     73
126,2,2,0,0,0,0,-0.785398163397448,-0.785398163397448,                81P     74
-0.785398163397448,0.785398163397448,0.785398163397448,               81P     75
0.785398163397448,1.,0.707106781186548,1.,158.,10.,8.1,158.,0.,       81P     76
8.1,148.,0.,8.1,-0.785398163397448,0.785398163397448,0.,0.,0.;        81P     77
126,1,1,0,0,1,0,-0.81,-0.81,0.,0.,1.,1.,148.,0.,8.1,148.,0.,0.,       83P     78
-0.81,0.,0.,0.,0.;                                                    83P     79
126,2,2,0,0,0,0,-0.785398163397448,-0.785398163397448,                85P     80
-0.785398163397448,0.785398163397448,0.785398163397448,               85P     81
0.785398163397448,1.,0.707106781186547,1.,10.,0.,8.1,0.,0.,8.1,       85P     82
0.,10.,8.1,-0.785398163397448,0.785398163397448,0.,0.,0.;             85P     83
126,1,1,0,0,1,0,0.,0.,0.81,0.81,1.,1.,10.,0.,0.,10.,0.,8.1,0.,        87P     84
0.81,0.,0.,0.;                                                        87P     85
126,1,1,0,0,1,0,1.,1.,14.8,14.8,1.,1.,148.,77.8,8.1,10.,77.8,         89P     86
8.1,1.,14.8,0.,0.,0.;                                                 89P     87
126,1,1,0,0,1,0,1.,1.,14.8,14.8,1.,1.,10.,0.,8.1,148.,0.,8.1,1.,      91P     88
14.8,0.,0.,0.;                                                        91P     89
128,1,2,1,2,0,0,0,0,0,0.,0.,0.81,0.81,-0.785398163397448,             93P     90
-0.785398163397448,-0.785398163397448,0.785398163397448,              93P     91
0.785398163397448,0.785398163397448,1.,1.,0.707106781186548,          93P     92
0.707106781186548,1.,1.,10.,77.8,8.1,10.,77.8,0.,                     93P     93
2.22044604925031D-15,77.8,8.1,2.22044604925031D-15,77.8,0.,           93P     94
-3.33066907387547D-15,67.8,8.1,-3.33066907387547D-15,67.8,0.,0.,      93P     95
0.81,-0.785398163397448,0.785398163397448;                            93P     96
128,1,1,1,1,0,0,1,0,0,0.999,0.999,6.781,6.781,-0.001,-0.001,          95P     97
0.811,0.811,1.,1.,1.,1.,0.,67.81,-0.01,0.,9.99,-0.01,0.,67.81,        95P     98
8.11,0.,9.99,8.11,0.999,6.781,-0.001,0.811;                           95P     99
128,1,1,1,1,0,0,1,0,0,-7.901,-7.901,7.901,7.901,-3.891,-3.891,        97P    100
3.891,3.891,1.,1.,1.,1.,158.01,-0.0099999999999989,0.,                97P    101
-0.0100000000000033,-0.0099999999999989,0.,158.01,77.81,0.,           97P    102
-0.0100000000000033,77.81,0.,-7.901,7.901,-3.891,3.891;               97P    103
128,1,2,1,2,0,0,0,0,0,0.,0.,0.81,0.81,-0.785398163397448,             99P    104
-0.785398163397448,-0.785398163397448,0.785398163397448,              99P    105
0.785398163397448,0.785398163397448,1.,1.,0.707106781186548,          99P    106
0.707106781186548,1.,1.,158.,67.8,8.1,158.,67.8,0.,158.,77.8,         99P    107
8.1,158.,77.8,0.,148.,77.8,8.1,148.,77.8,0.,0.,0.81,                  99P    108
-0.785398163397448,0.785398163397448;                                 99P    109
128,1,1,1,1,0,0,1,0,0,0.999,0.999,6.781,6.781,-0.001,-0.001,         101P    110
0.811,0.811,1.,1.,1.,1.,158.,9.99,-0.01,158.,67.81,-0.01,158.,       101P    111
9.99,8.11,158.,67.81,8.11,0.999,6.781,-0.001,0.811;                  101P    112
128,1,2,1,2,0,0,0,0,0,0.,0.,0.81,0.81,-0.785398163397448,            103P    113
-0.785398163397448,-0.785398163397448,0.785398163397448,             103P    114
0.785398163397448,0.785398163397448,1.,1.,0.707106781186548,         103P    115
0.707106781186548,1.,1.,148.,-3.33066907387547D-15,8.1,148.,         103P    116
-3.33066907387547D-15,0.,158.,2.22044604925031D-15,8.1,158.,         103P    117
2.22044604925031D-15,0.,158.,10.,8.1,158.,10.,0.,0.,0.81,            103P    118
-0.785398163397448,0.785398163397448;                                103P    119
128,1,2,1,2,0,0,0,0,0,0.,0.,0.81,0.81,-0.785398163397448,            105P    120
-0.785398163397448,-0.785398163397448,0.785398163397448,             105P    121
0.785398163397448,0.785398163397448,1.,1.,0.707106781186548,         105P    122
0.707106781186548,1.,1.,0.,10.,8.1,0.,10.,0.,                        105P    123
2.22044604925031D-15,2.22044604925031D-15,8.1,                       105P    124
2.22044604925031D-15,2.22044604925031D-15,0.,10.,0.,8.1,10.,0.,      105P    125
0.,0.,0.81,-0.785398163397448,0.785398163397448;                     105P    126
128,1,1,1,1,0,0,1,0,0,0.999,0.999,14.801,14.801,-0.001,-0.001,       107P    127
0.811,0.811,1.,1.,1.,1.,148.01,77.8,-0.01,9.99000000000001,77.8,     107P    128
-0.01,148.01,77.8,8.11,9.99000000000001,77.8,8.11,0.999,14.801,      107P    129
-0.001,0.811;                                                        107P    130
128,1,1,1,1,0,0,1,0,0,0.999,0.999,14.801,14.801,-0.001,-0.001,       109P    131
0.811,0.811,1.,1.,1.,1.,9.99,0.,-0.01,148.01,0.,-0.01,9.99,0.,       109P    132
8.11,148.01,0.,8.11,0.999,14.801,-0.001,0.811;                       109P    133
128,1,1,1,1,0,0,1,0,0,-7.901,-7.901,7.901,7.901,-3.891,-3.891,       111P    134
3.891,3.891,1.,1.,1.,1.,-0.0100000000000033,-0.0099999999999989,     111P    135
8.1,158.01,-0.0099999999999989,8.1,-0.0100000000000033,77.81,        111P    136
8.1,158.01,77.81,8.1,-7.901,7.901,-3.891,3.891;                      111P    137
502,16,0.,67.8,8.1,10.,77.8,8.1,10.,77.8,0.,0.,67.8,0.,0.,10.,       113P    138
0.,0.,10.,8.1,148.,77.8,0.,158.,67.8,0.,158.,10.,0.,148.,0.,0.,      113P    139
10.,0.,0.,148.,77.8,8.1,158.,67.8,8.1,158.,10.,8.1,148.,0.,8.1,      113P    140
10.,0.,8.1;                                                          113P    141
504,24,45,113,1,113,2,47,113,2,113,3,49,113,3,113,4,51,113,4,        115P    142
113,1,53,113,4,113,5,55,113,6,113,5,57,113,1,113,6,59,113,7,113,     115P    143
3,61,113,8,113,7,63,113,9,113,8,65,113,10,113,9,67,113,11,113,       115P    144
10,69,113,5,113,11,71,113,12,113,13,73,113,13,113,8,75,113,7,        115P    145
113,12,77,113,14,113,13,79,113,9,113,14,81,113,14,113,15,83,113,     115P    146
15,113,10,85,113,16,113,6,87,113,11,113,16,89,113,12,113,2,91,       115P    147
113,16,113,15;                                                       115P    148
406,1,8HKörper1;                                                    117P    149
314,9.80392156862745,9.80392156862745,9.80392156862745,28HPulver     119P    150
beschichtung (Schwarz);                                              119P    151
314,62.7450980392157,62.7450980392157,62.7450980392157,17HStahl      121P    152
- satiniert;                                                         121P    153
S      1G      3D    122P    153                                        T      1
